<svg width="65" height="65" viewBox="0 0 65 65" fill="none" xmlns="http://www.w3.org/2000/svg">
<path d="M42.5167 5.54021L39.6923 8.36457L13.7308 34.3231C11.9728 36.0841 11.0923 36.9646 10.3367 37.9335C9.44516 39.0775 8.68003 40.3146 8.05464 41.6231C7.52755 42.7322 7.13451 43.9143 6.34844 46.2725L3.01528 56.269L2.19874 58.7125C2.00775 59.2821 1.97941 59.8936 2.11692 60.4784C2.25442 61.0632 2.55231 61.5981 2.9771 62.0229C3.4019 62.4477 3.93676 62.7456 4.52156 62.8831C5.10636 63.0206 5.71793 62.9922 6.28751 62.8013L8.73102 61.9847L18.7275 58.6516C21.0887 57.8655 22.2678 57.4725 23.3769 56.9454C24.691 56.3198 25.9209 55.5591 27.0665 54.6633C28.0354 53.9077 28.9159 53.0272 30.6739 51.2692L56.6354 25.3077L59.4598 22.4833C61.7066 20.2365 62.9688 17.1892 62.9688 14.0118C62.9688 10.8343 61.7066 7.78701 59.4598 5.54021C57.213 3.29342 54.1657 2.03118 50.9882 2.03118C47.8108 2.03118 44.7635 3.29342 42.5167 5.54021Z" stroke="#868BAC" stroke-width="2"/>
</svg>
