<?xml version="1.0" standalone="no"?>
<!DOCTYPE svg PUBLIC "-//W3C//DTD SVG 20010904//EN"
 "http://www.w3.org/TR/2001/REC-SVG-20010904/DTD/svg10.dtd">
<svg version="1.0" xmlns="http://www.w3.org/2000/svg"
 width="500.000000pt" height="500.000000pt" viewBox="0 0 500.000000 500.000000"
 preserveAspectRatio="xMidYMid meet">

<g transform="translate(0.000000,500.000000) scale(0.100000,-0.100000)"
fill="#000000" stroke="none">
<path d="M1784 3557 c-246 -100 -482 -339 -624 -632 -112 -230 -154 -404 -155
-635 0 -158 9 -220 47 -340 24 -76 78 -187 121 -250 l31 -44 12 69 c15 90 44
161 100 248 l46 71 -26 105 c-34 143 -46 240 -46 379 0 428 183 804 483 996
32 21 73 44 90 51 66 29 -2 13 -79 -18z"/>
<path d="M2560 3128 c-22 -24 -27 -86 -10 -119 6 -10 24 -26 40 -34 67 -35
120 -5 120 66 0 33 -6 47 -34 75 -41 41 -85 45 -116 12z"/>
<path d="M1995 3084 c-30 -32 -34 -106 -9 -142 40 -58 144 -3 144 76 0 85 -81
124 -135 66z"/>
<path d="M2519 2878 c-80 -119 -240 -132 -333 -27 -29 32 -43 33 -60 6 -8 -13
-3 -24 24 -53 127 -133 348 -103 432 59 41 81 -10 93 -63 15z"/>
</g>
</svg>
